# xmcd
#
# Track frame offsets: 
#        150
#        24540
#        46295
#        71547
#        97027
#        123747
#        147850
#        169130
#        191877
#
# Disc length: 2598 seconds
#
# Revision: 2
# Processed by: cddbd v1.5.2PL0 Copyright (c) Steve Scherf et al.
# Submitted via: ExactAudioCopyFreeDBPlugin 1.0
#
DISCID=840a2409
DTITLE=Dayton - Hot Fun
DYEAR=1982
DGENRE=Funk
TTITLE0=Hot Fun In The Summertime
TTITLE1=We Can't Miss
TTITLE2=Patiently
TTITLE3=Krackity Krack
TTITLE4=Meet The Man
TTITLE5=Gunch
TTITLE6=Never Repay Your Love
TTITLE7=Movin' Up
TTITLE8=Movin' Up (Reprise)
EXTD=YEAR: 1982
EXTT0=
EXTT1=
EXTT2=
EXTT3=
EXTT4=
EXTT5=
EXTT6=
EXTT7=
EXTT8=
PLAYORDER=
